<svg width="32" height="32" viewBox="0 0 32 32" fill="none" xmlns="http://www.w3.org/2000/svg">
<g clip-path="url(#clip0_180_9)">
<rect width="32" height="32" fill="white"/>
<rect x="14" y="25" width="4" height="4" fill="#612A00" fill-opacity="0.8"/>
<path d="M16 1L22.9282 11.5H9.0718L16 1Z" fill="#92C37C"/>
<path d="M16 6L24.6603 18.75H7.33975L16 6Z" fill="#92C37C"/>
<path d="M16 12L27.2583 27.75H4.74167L16 12Z" fill="#92C37C"/>
<path d="M2.91761 25V7.54545H13.8011V9.8125H5.55114V14.5852H9.45455C10.75 14.5852 11.8494 14.7955 12.7528 15.2159C13.6619 15.6364 14.3551 16.2301 14.8324 16.9972C15.3153 17.7642 15.5568 18.6676 15.5568 19.7074C15.5568 20.7472 15.3153 21.6648 14.8324 22.4602C14.3551 23.2557 13.6619 23.8778 12.7528 24.3267C11.8494 24.7756 10.75 25 9.45455 25H2.91761ZM5.55114 22.7841H9.45455C10.2045 22.7841 10.8381 22.6364 11.3551 22.3409C11.8778 22.0455 12.2727 21.6619 12.5398 21.1903C12.8125 20.7187 12.9489 20.2131 12.9489 19.6733C12.9489 18.8892 12.6477 18.2159 12.0455 17.6534C11.4432 17.0852 10.5795 16.8011 9.45455 16.8011H5.55114V22.7841ZM28.7125 7.54545V25H26.0875V9.79545H17.8716V25H15.2466V7.54545H28.7125Z" fill="#1F3B12"/>
</g>
<defs>
<clipPath id="clip0_180_9">
<rect width="32" height="32" fill="white"/>
</clipPath>
</defs>
</svg>
